<svg xmlns="http://www.w3.org/2000/svg" xmlns:xlink="http://www.w3.org/1999/xlink" width="693" height="183" viewBox="0 0 693 183">
  <defs>
    <polygon id="pktlogorounded_rgb-a" points=".038 .902 96.668 .902 96.668 142 .038 142"/>
    <polygon id="pktlogorounded_rgb-c" points=".32 .061 74.081 .061 74.081 139.195 .32 139.195"/>
    <polygon id="pktlogorounded_rgb-e" points=".688 .261 60.73 .261 60.73 120.907 .688 120.907"/>
  </defs>
  <g fill="none" fill-rule="evenodd" transform="translate(0 -1)">
    <g transform="translate(145 41.939)">
      <mask id="pktlogorounded_rgb-b" fill="#fff">
        <use xlink:href="#pktlogorounded_rgb-a"/>
      </mask>
      <path fill="#808285" d="M48.8218,86.2734 C29.4958,86.2734 13.3598,69.9504 13.3598,50.0614 C13.3598,29.9844 29.4958,13.2854 48.8218,13.2854 C68.5228,13.2854 84.2838,29.9844 84.2838,50.0614 C84.2838,69.9504 68.5228,86.2734 48.8218,86.2734 M49.0088,1.6524 C34.3738,1.6524 21.4278,9.9084 12.2338,20.9784 L11.8588,7.8444 C11.6708,3.1534 9.4198,0.9024 6.0418,0.9024 C2.4768,0.9024 0.0378,3.7164 0.0378,7.6564 L0.0378,135.6204 C0.0378,139.3734 2.6648,142.0004 6.2298,142.0004 C9.9828,142.0004 12.2338,139.1854 12.2338,135.4324 L12.2338,79.5194 C21.4278,90.4014 34.3738,97.9074 49.0088,97.9074 C75.6528,97.9074 96.6678,76.5174 96.6678,50.0614 C96.6678,23.6054 75.6528,1.6524 49.0088,1.6524" mask="url(#pktlogorounded_rgb-b)"/>
    </g>
    <path fill="#EF4056" d="M84.0582,84.3077 L58.5402,108.3237 C57.2272,109.8247 55.1632,110.3887 53.6622,110.3887 C51.7862,110.3887 49.9102,109.8247 48.4092,108.3237 L23.2662,84.3077 C20.6392,81.4937 20.2642,76.8027 23.2662,73.8007 C26.0802,71.1737 30.7712,70.7987 33.5862,73.8007 L53.6622,93.1257 L74.1142,73.8007 C76.7412,70.7987 81.4312,71.1737 84.0582,73.8007 C86.6852,76.8027 86.6852,81.4937 84.0582,84.3077 M97.0052,44.5297 L10.3202,44.5297 C4.6912,44.5297 0.0002,48.8457 0.0002,54.4747 L0.0002,86.5587 C0.0002,115.6417 24.0162,139.8467 53.6622,139.8467 C83.1202,139.8467 106.9492,115.6417 106.9492,86.5587 L106.9492,54.4747 C106.9492,48.8457 102.4462,44.5297 97.0052,44.5297"/>
    <g transform="translate(462 .939)">
      <mask id="pktlogorounded_rgb-d" fill="#fff">
        <use xlink:href="#pktlogorounded_rgb-c"/>
      </mask>
      <path fill="#808285" d="M33.3111,86.3091 L68.2431,54.8491 C71.4321,52.0341 71.8071,47.9061 69.3681,45.2801 C66.7411,42.4651 62.8011,43.2161 59.9871,45.8421 L12.5161,90.3761 L12.5161,7.1911 C12.5161,2.8751 10.6401,0.0601 6.7001,0.0601 C2.3841,0.0601 0.3201,2.8751 0.3201,7.1911 L0.3201,131.9651 C0.3201,136.0931 2.7591,138.9071 6.7001,138.9071 C10.2641,138.9071 12.5161,136.0931 12.5161,131.9651 L12.5161,105.0381 L24.6761,94.0861 L62.9891,136.6551 C65.4281,139.2821 69.5551,140.2211 72.1821,137.7811 C75.1841,134.9671 74.2471,131.2141 71.9951,128.5871 L33.3111,86.3091 Z" mask="url(#pktlogorounded_rgb-d)"/>
    </g>
    <path fill="#808285" d="M300.2081,128.2124 C280.8821,128.2124 264.7461,111.8894 264.7461,92.0004 C264.7461,71.9234 280.8821,55.2244 300.2081,55.2244 C319.9091,55.2244 335.6701,71.9234 335.6701,92.0004 C335.6701,111.8894 319.9091,128.2124 300.2081,128.2124 M300.5831,43.5914 C273.3771,43.5914 252.3621,65.5444 252.3621,92.0004 C252.3621,118.4564 273.3771,139.8464 300.5831,139.8464 C326.1011,139.8464 348.2411,118.4564 348.2411,92.0004 C348.2411,65.5444 325.9131,43.5914 300.5831,43.5914"/>
    <g transform="translate(632 18.939)">
      <mask id="pktlogorounded_rgb-f" fill="#fff">
        <use xlink:href="#pktlogorounded_rgb-e"/>
      </mask>
      <path fill="#808285" d="M55.4761,102.707 C53.6001,102.707 51.7231,103.833 50.5981,104.77 C47.9711,107.022 44.7811,109.273 40.2781,109.273 C32.5851,109.273 28.2701,104.583 28.2701,93.889 L28.2701,36.098 L52.0991,36.474 C55.4761,36.474 57.7281,34.41 57.7281,31.22 C57.7281,27.842 55.4761,25.779 52.0991,25.779 L28.2701,25.966 L28.2701,6.64 C28.2701,2.888 25.6431,0.261 22.4541,0.261 C19.0761,0.261 16.2611,2.888 16.2611,6.64 L16.2611,25.966 L6.1291,25.779 C2.9401,25.779 0.6881,27.842 0.6881,31.22 C0.6881,34.222 3.1271,36.661 6.1291,36.474 L16.2611,36.098 L16.2611,94.264 C16.2611,112.464 27.3311,120.907 40.0901,120.907 C47.9711,120.907 53.9751,117.905 58.1031,113.59 C59.4161,112.088 60.7301,110.399 60.7301,108.148 C60.7301,104.958 58.6651,102.707 55.4761,102.707" mask="url(#pktlogorounded_rgb-f)"/>
    </g>
    <path fill="#808285" d="M552.2906 85.2456C555.0486 65.5516 569.5966 55.2246 585.9686 55.2246 603.4176 55.2246 615.6136 69.8596 616.3646 85.2456L552.2906 85.2456zM585.9686 43.5916C559.3246 43.5916 539.4366 65.5446 539.4366 92.0006 539.4366 118.4566 559.6996 139.8466 586.1556 139.8466 599.2906 139.8466 612.0496 134.9676 620.4926 126.7116 622.3686 124.8356 623.8696 122.7716 623.8696 120.7076 623.8696 117.7056 621.9936 115.2666 618.4286 115.2666 616.5526 115.2666 614.6756 116.0166 613.1746 117.3306 605.2946 124.2726 597.2266 128.2126 586.1556 128.2126 568.9316 128.2126 553.5576 115.1026 551.9596 95.5646L618.9906 95.5646C625.3706 95.5646 628.9366 92.1876 628.9366 86.7466 628.9366 65.7316 610.5486 43.5916 585.9686 43.5916zM440.1802 110.2007C438.4912 110.2007 436.6152 111.5137 435.4892 113.0147 430.2362 119.9577 418.9782 128.2127 406.4072 128.2127 387.6432 128.2127 371.5072 113.3897 371.5072 92.0007 371.5072 69.1097 387.6432 55.4127 406.4072 55.4127 420.1032 55.4127 427.6092 61.9797 433.9882 69.6727 435.1142 70.9857 436.8022 72.2997 438.8672 72.2997 441.6812 72.2997 444.4952 70.2357 444.4952 67.4207 444.4952 65.3567 443.1822 63.2927 442.0562 61.6037 434.3642 50.5337 421.4162 44.1547 406.4072 44.1547 380.3262 44.1547 358.9362 65.5447 358.9362 92.0007 358.9362 118.0807 380.3262 139.8467 406.4072 139.8467 422.5422 139.8467 436.4272 130.4647 443.7442 120.7077 445.0582 119.0187 445.8092 117.3307 445.8092 115.8297 445.8092 112.4517 443.3692 110.2007 440.1802 110.2007"/>
  </g>
</svg>
